<?xml version="1.0" encoding="utf-8"?>
<svg data-name="Ebene 1" viewBox="0 0 800 200" xmlns="http://www.w3.org/2000/svg">
  <path d="M100 0a100 100 0 0 0-2.26 200h4.52A100 100 0 0 0 100 0Zm12.64 183.68v-1a12.69 12.69 0 1 0-25.37 0v1a15.7 15.7 0 1 1 25.28 0Zm13-10.14a25.61 25.61 0 0 0-51.2 0 28.1 28.1 0 1 1 51.2 0Zm12.37-9.89v-1.67a38 38 0 0 0-76 0v1.67a40.5 40.5 0 1 1 76 0Zm12.27-9.93c.11-1.36.17-2.74.17-4.14a50.42 50.42 0 0 0-100.83 0c0 1.4.07 2.78.18 4.14a52.89 52.89 0 1 1 100.48 0Zm12.18-9.93a62.81 62.81 0 1 0-124.92 0 65.29 65.29 0 1 1 124.92 0Zm12.19-9.9a76.22 76.22 0 0 0 .56-9.12 75.21 75.21 0 0 0-150.42.02 74.19 74.19 0 0 0 .56 9.12 77.68 77.68 0 1 1 149.3 0Zm12.18-9.93A87.6 87.6 0 1 0 12.39 112.4a88.55 88.55 0 0 0 .77 11.58 90.09 90.09 0 1 1 173.67 0Z" fill="#de425b"/>
  <path d="m314.28 152.5-8.8-21.3h-46.15l-8.8 21.3h-23.58l44.31-99.4h22.72l44.44 99.4h-24.14Zm-47.57-38.77h31.53l-15.77-38.05-15.76 38.05Zm80.5 38.77V76.1h22.17v76.4H347.2Zm11.09-87.05c-4.08 0-7.4-1.19-9.94-3.55a11.51 11.51 0 0 1-3.84-8.8c0-3.5 1.28-6.44 3.84-8.8 2.55-2.37 5.86-3.55 9.94-3.55 4.07 0 7.38 1.13 9.94 3.4a10.94 10.94 0 0 1 3.82 8.52c0 3.69-1.27 6.74-3.82 9.16-2.56 2.4-5.87 3.62-9.94 3.62Zm52.81 20.74a24.66 24.66 0 0 1 10.72-8.38c4.5-1.9 9.69-2.84 15.55-2.84v20.45c-2.46-.2-4.11-.3-4.97-.3-6.34 0-11.3 1.78-14.9 5.34-3.6 3.54-5.4 8.87-5.4 15.97v36.07h-22.16V76.1h21.16v10.09Zm85.48 47 5.97 15.62a22.9 22.9 0 0 1-8.02 3.62 40.5 40.5 0 0 1-10.02 1.2c-9.09 0-16.12-2.31-21.08-6.95-4.98-4.64-7.46-11.46-7.46-20.45V94.85H444.2V77.8h11.78V59.2h22.15v18.6h19.03v17.04h-19.03v31.1c0 3.2.83 5.7 2.49 7.45 1.65 1.75 4 2.63 7.03 2.63 3.5 0 6.48-.95 8.94-2.84Zm18.45 19.3V76.1h22.16v76.4h-22.16Zm11.08-87.04c-4.07 0-7.38-1.19-9.94-3.55a11.51 11.51 0 0 1-3.83-8.8c0-3.5 1.28-6.44 3.83-8.8 2.56-2.37 5.87-3.55 9.94-3.55 4.08 0 7.39 1.13 9.94 3.4a10.94 10.94 0 0 1 3.83 8.52c0 3.69-1.27 6.74-3.83 9.16-2.55 2.4-5.86 3.62-9.94 3.62Zm129.5 9.52c9.56 0 17.16 2.81 22.79 8.45 5.63 5.63 8.45 14.08 8.45 25.34v43.74H664.7v-40.33c0-6.06-1.25-10.58-3.76-13.56-2.51-2.98-6.09-4.47-10.72-4.47-5.2 0-9.33 1.68-12.36 5.04-3.03 3.36-4.54 8.35-4.54 14.98v38.34h-22.15v-40.33c0-12.02-4.83-18.03-14.5-18.03-5.1 0-9.17 1.68-12.2 5.04-3.03 3.36-4.54 8.35-4.54 14.98v38.34h-22.16V76.1h21.16v8.8a27.99 27.99 0 0 1 10.44-7.38 35.21 35.21 0 0 1 13.56-2.55c5.4 0 10.27 1.06 14.63 3.19a25.9 25.9 0 0 1 10.5 9.3 31.43 31.43 0 0 1 11.86-9.23 37.46 37.46 0 0 1 15.69-3.26Zm126.8 39.62c0 .28-.15 2.26-.44 5.96H724.2a18 18 0 0 0 7.38 11.22c3.88 2.74 8.71 4.12 14.5 4.12 3.97 0 7.5-.6 10.57-1.78a25.58 25.58 0 0 0 8.6-5.61L777 141.28c-7.19 8.24-17.7 12.36-31.52 12.36-8.61 0-16.23-1.69-22.86-5.05a36.99 36.99 0 0 1-15.34-13.98c-3.6-5.97-5.4-12.74-5.4-20.31 0-7.48 1.78-14.23 5.33-20.23A37.24 37.24 0 0 1 721.85 80c6.2-3.36 13.14-5.04 20.8-5.04 7.48 0 14.25 1.6 20.3 4.83a35.22 35.22 0 0 1 14.28 13.84c3.46 6 5.18 13 5.18 20.95Zm-39.63-22.87c-5.02 0-9.23 1.42-12.64 4.26-3.4 2.84-5.49 6.72-6.25 11.65h37.63c-.75-4.83-2.83-8.7-6.24-11.58-3.41-2.9-7.58-4.33-12.5-4.33Z" style="white-space: pre;"/>
</svg>