<svg id="Ebene_1" data-name="Ebene 1" xmlns="http://www.w3.org/2000/svg" viewBox="0 0 32 32">
  <defs>
    <style>
      @media (prefers-color-scheme:dark){.cls-1{fill:#fff}}
    </style>
  </defs>
  <path class="cls-1" d="M21.23 5.91a16 16 0 1 0 16 16 16 16 0 0 0-16-16Zm5 26.43a5.06 5.06 0 0 0-10.06 0 5.52 5.52 0 1 1 10.06 0Zm2.79-2.29a7.82 7.82 0 0 0-15.63 0 8.18 8.18 0 0 1-.39-2.72 8.28 8.28 0 0 1 16.55 0 8.44 8.44 0 0 1-.5 2.72Zm2.75-2.29v-.43a10.58 10.58 0 0 0-21.15 0v.43a10.85 10.85 0 0 1-.47-3.19 11 11 0 0 1 22.07 0 11.19 11.19 0 0 1-.42 3.19ZM21.23 11.24A13.33 13.33 0 0 0 7.9 24.57v.54a13.54 13.54 0 0 1-.38-3.2 13.7 13.7 0 0 1 27.4 0 13.54 13.54 0 0 1-.38 3.2v-.54a13.33 13.33 0 0 0-13.31-13.33Z" transform="translate(-5.23 -5.91)" fill="#403d54"/>
</svg>