<?xml version="1.0" encoding="utf-8"?>
<svg id="Ebene_1" data-name="Ebene 1" viewBox="0 0 100 100" width="100px" height="100px" xmlns="http://www.w3.org/2000/svg">
  <defs>
    <style>
      .cls-1 {
        fill: #3f3c54;
      }
    </style>
  </defs>
  <path class="cls-1" d="M125.61,28.21a100,100,0,0,0-2.26,200c.75,0,1.5,0,2.26,0s1.51,0,2.26,0a100,100,0,0,0-2.26-200Zm12.64,183.68c0-.35,0-.69,0-1a12.69,12.69,0,1,0-25.37,0c0,.35,0,.69,0,1a15.7,15.7,0,1,1,25.28,0Zm13-10.14a25.61,25.61,0,0,0-51.2,0,28.1,28.1,0,1,1,51.2,0Zm12.37-9.89c0-.56,0-1.11,0-1.67a38,38,0,0,0-76,0c0,.56,0,1.11,0,1.67a40.5,40.5,0,1,1,76,0Zm12.27-9.93c.11-1.36.17-2.74.17-4.14a50.42,50.42,0,0,0-100.83,0c0,1.4.07,2.78.18,4.14a52.89,52.89,0,1,1,100.48,0ZM188.07,172a62.81,62.81,0,1,0-124.92,0,65.29,65.29,0,1,1,124.92,0Zm12.19-9.9a76.22,76.22,0,0,0,.56-9.12A75.21,75.21,0,0,0,50.4,153a74.19,74.19,0,0,0,.56,9.12,77.68,77.68,0,1,1,149.3,0Zm12.18-9.93A87.6,87.6,0,1,0,38,140.61a88.55,88.55,0,0,0,.77,11.58,90.09,90.09,0,1,1,173.67,0Z" transform="translate(-25.61 -28.21)"/>
</svg>